<svg width="100" height="100" viewBox="0 0 100 100" fill="none" xmlns="http://www.w3.org/2000/svg">
<path d="M90.2917 75.7083L68.2083 53.625H64.0833L53.5 64.2083V68.3333L75.5833 90.4167C77.2083 92.0417 79.8333 92.0417 81.4583 90.4167L90.2917 81.5833C91.9167 80 91.9167 77.3333 90.2917 75.7083ZM78.5 81.625L60.8333 63.9583L63.7917 61L81.4583 78.6667L78.5 81.625Z" fill="#537D80"/>
<path d="M72.25 42.4584L78.125 36.5834L86.9583 45.4167C91.8333 40.5417 91.8333 32.625 86.9583 27.75L72.2083 13L66.3333 18.875V7.12502L63.4167 4.16669L48.6667 18.9167L51.625 21.875H63.4167L57.5417 27.75L61.9583 32.1667L49.9167 44.2084L32.7083 27V21.0834L20.125 8.50002L8.33334 20.2917L20.9583 32.9167H26.8333L44.0417 50.125L40.5 53.6667H31.6667L9.58334 75.75C7.95834 77.375 7.95834 80 9.58334 81.625L18.4167 90.4584C20.0417 92.0834 22.6667 92.0834 24.2917 90.4584L46.375 68.375V59.5417L67.8333 38.0834L72.25 42.4584ZM39 63.9167L21.3333 81.5834L18.375 78.625L36.0417 60.9584L39 63.9167Z" fill="#537D80"/>
</svg>
