<svg width="100" height="100" viewBox="0 0 100 100" fill="none" xmlns="http://www.w3.org/2000/svg">
<path d="M87.375 30.2919C89 28.6669 89 26.0419 87.375 24.4169L75.5833 12.6252C73.9583 11.0002 71.3333 11.0002 69.7083 12.6252L51 31.3335L34.7917 15.1252C31.5417 11.8752 26.25 11.8752 23 15.1252L15.0833 23.0419C11.8333 26.2919 11.8333 31.5835 15.0833 34.8335L31.2917 51.0419L12.5 69.8335V87.5002H30.1667L49 68.6669L65.2083 84.8752C69.1667 88.8335 74.5 87.3752 77 84.8752L84.9167 76.9585C88.1667 73.7085 88.1667 68.4169 84.9167 65.1669L68.7083 48.9585L87.375 30.2919ZM21 28.9169L28.875 21.0002L34.1667 26.2919L29.25 31.2502L35.125 37.1252L40.0833 32.1668L45.0833 37.1669L37.1667 45.0835L21 28.9169ZM67.7917 59.9169L62.8333 64.8752L68.7083 70.7502L73.6667 65.7919L78.9583 71.0835L71.0417 79.0002L54.8333 62.7919L62.75 54.8752L67.7917 59.9169ZM26.7083 79.1669H20.8333V73.2919L60.875 33.2502L66.2917 38.6668L66.75 39.1252L26.7083 79.1669ZM66.75 27.3335L72.625 21.4585L78.5 27.3335L72.625 33.2085L66.75 27.3335Z" fill="#537D80"/>
</svg>
