<svg width="100" height="100" viewBox="0 0 100 100" fill="none" xmlns="http://www.w3.org/2000/svg">
<path d="M75 54.1667V83.3334H16.6667V25H37.5833C37.7917 22.0417 38.5 19.25 39.5833 16.6667H16.6667C12.0833 16.6667 8.33334 20.4167 8.33334 25V83.3334C8.33334 87.9167 12.0833 91.6667 16.6667 91.6667H75C79.5834 91.6667 83.3334 87.9167 83.3334 83.3334V62.5L75 54.1667ZM68.75 75.0001H22.9167L34.375 60.2917L42.5417 70.1251L54 55.375L68.75 75.0001ZM80.4167 37.0417C82.25 34.125 83.3334 30.75 83.3334 27.0834C83.3334 16.7084 74.9584 8.33337 64.5833 8.33337C54.2083 8.33337 45.8333 16.7084 45.8333 27.0834C45.8333 37.4584 54.2083 45.8334 64.5417 45.8334C68.2083 45.8334 71.625 44.75 74.5 42.9167L87.5 55.9167L93.4167 50L80.4167 37.0417ZM64.5833 37.5C58.8333 37.5 54.1667 32.8334 54.1667 27.0834C54.1667 21.3334 58.8333 16.6667 64.5833 16.6667C70.3333 16.6667 75 21.3334 75 27.0834C75 32.8334 70.3333 37.5 64.5833 37.5Z" fill="#537D80"/>
</svg>
