<svg width="148" height="29" viewBox="0 0 148 29" fill="none" xmlns="http://www.w3.org/2000/svg">
<path d="M19.9952 24.04H9.51516L7.83516 29H0.675156L10.8352 0.919999H18.7552L28.9152 29H21.6752L19.9952 24.04ZM18.2352 18.76L14.7552 8.48L11.3152 18.76H18.2352ZM46.3273 29L40.4873 18.4H38.8473V29H32.0073V0.919999H43.4873C45.7007 0.919999 47.5807 1.30667 49.1273 2.08C50.7007 2.85333 51.874 3.92 52.6473 5.28C53.4207 6.61333 53.8073 8.10667 53.8073 9.76C53.8073 11.6267 53.274 13.2933 52.2073 14.76C51.1673 16.2267 49.6207 17.2667 47.5673 17.88L54.0473 29H46.3273ZM38.8473 13.56H43.0873C44.3407 13.56 45.274 13.2533 45.8873 12.64C46.5273 12.0267 46.8473 11.16 46.8473 10.04C46.8473 8.97333 46.5273 8.13333 45.8873 7.52C45.274 6.90667 44.3407 6.6 43.0873 6.6H38.8473V13.56ZM78.3011 0.919999V6.4H70.8611V29H64.0211V6.4H56.5811V0.919999H78.3011ZM106.854 29H100.014L88.5739 11.68V29H81.7339V0.919999H88.5739L100.014 18.32V0.919999H106.854V29ZM118.652 0.919999V29H111.812V0.919999H118.652ZM147.689 0.919999L137.969 19.72V29H131.129V19.72L121.409 0.919999H129.169L134.609 12.68L140.009 0.919999H147.689Z" fill="black"/>
</svg>
